:FULLY-SPECIFIED
:FORCE-ALL-JOINTS-BE-3DOF
:DEGREES
1835
root 6.75388 13.8578 27.7649 -18.7539 50.5893 -21.2272
lfemur -54.2784 32.4698 1.34513
ltibia 73.0709 -0 0
lfoot -10.3846 -10.0584 -0.265074
ltoes -30.0384 0 0
rfemur 4.08476 -2.22681 16.6541
rtibia 48.8519 -0 0
rfoot -24.7353 -32.0119 0.0504197
rtoes -26.5023 0 0
lowerback 13.7201 5.22064 4.53292
upperback -0.437282 8.22689 5.26665
thorax -8.26722 3.9528 1.39625
lowerneck -4.29841 9.77664 3.22282
upperneck 8.19398 13.0971 -2.06894
head 3.83484 6.51247 -0.608143
lclavicle -1.20696e-13 4.87022e-15 0
lhumerus 62.7608 21.1597 111.695
lradius 10.3927 -0 0
lwrist -87.7914 180 180
lhand -30.265 38.5969 0.217605
lfingers 7.12502 -0 0
lthumb -3.57367 68.5737 0.206215
rclavicle -1.20696e-13 4.87022e-15 0
rhumerus -72.5724 13.3301 -80.1862
rradius 126.343 -0 0
rwrist -24.4564 180 180
rhand -67.0083 -25.247 -1.62726
rfingers 7.12502 -0 0
rthumb -37.992 -61.5191 -1.42013
1836
root 6.78347 13.8534 27.7755 -18.8003 50.6309 -21.3557
lfemur -54.3953 32.5259 1.33817
ltibia 73.1507 -0 0
lfoot -10.4648 -10.104 -0.262756
ltoes -30.0196 0 0
rfemur 4.17771 -2.27286 16.6865
rtibia 48.674 -0 0
rfoot -24.6807 -31.9845 0.0502063
rtoes -26.84 0 0
lowerback 13.7503 5.23199 4.6256
upperback -0.457265 8.26079 5.26154
thorax -8.29369 3.96409 1.33015
lowerneck -4.19857 9.95809 3.36592
upperneck 8.11652 13.3451 -2.22123
head 3.82004 6.63442 -0.673065
lclavicle -1.20696e-13 4.87022e-15 0
lhumerus 62.8998 21.0676 111.947
lradius 10.3619 -0 0
lwrist -87.6364 180 180
lhand -30.2978 38.5977 0.214594
lfingers 7.12502 -0 0
lthumb -3.60543 68.5735 0.203376
rclavicle -1.20696e-13 4.87022e-15 0
rhumerus -72.6774 13.2593 -80.3414
rradius 126.472 -0 0
rwrist -25.5762 180 180
rhand -66.9276 -29.3841 -1.52366
rfingers 7.12502 -0 0
rthumb -37.9707 -65.6286 -1.26537
1837
root 6.81306 13.849 27.7861 -18.8823 50.725 -21.4959
lfemur -54.4796 32.4862 1.34334
ltibia 73.1146 -0 0
lfoot -10.4391 -10.1123 -0.251942
ltoes -29.8568 0 0
rfemur 4.24664 -2.35717 16.7336
rtibia 48.5345 -0 0
rfoot -24.6559 -31.9333 0.0484436
rtoes -27.1605 0 0
lowerback 13.7819 5.22881 4.73057
upperback -0.47298 8.27642 5.24936
thorax -8.31464 3.96599 1.25338
lowerneck -4.10111 10.1194 3.48975
upperneck 8.03028 13.565 -2.35021
head 3.79995 6.74305 -0.72873
lclavicle -1.20696e-13 4.87022e-15 0
lhumerus 63.0162 20.9197 112.131
lradius 10.3305 -0 0
lwrist -87.6107 180 180
lhand -30.3684 38.6779 0.204968
lfingers 7.12502 -0 0
lthumb -3.67352 68.6514 0.194266
rclavicle -1.20696e-13 4.87022e-15 0
rhumerus -72.749 13.1591 -80.4599
rradius 126.582 -0 0
rwrist -26.5655 180 180
rhand -66.8716 -32.2587 -1.46814
rfingers 7.12502 -0 0
rthumb -37.9853 -68.1898 -1.17745
1838
root 6.84265 13.8446 27.7967 -18.9944 50.8639 -21.6486
lfemur -54.5395 32.3651 1.35933
ltibia 72.9858 -0 0
lfoot -10.3276 -10.0869 -0.234071
ltoes -29.5785 0 0
rfemur 4.29779 -2.47457 16.7938
rtibia 48.4222 -0 0
rfoot -24.6572 -31.8618 0.0453853
rtoes -27.4695 0 0
lowerback 13.8146 5.21396 4.84759
upperback -0.485313 8.27772 5.23125
thorax -8.33081 3.96042 1.16652
lowerneck -4.00371 10.2679 3.60015
upperneck 7.93638 13.7672 -2.46299
head 3.77575 6.84333 -0.777925
lclavicle -1.20696e-13 4.87022e-15 0
lhumerus 63.1109 20.7179 112.249
lradius 10.2951 -0 0
lwrist -87.7002 180 180
lhand -30.469 38.8224 0.190053
lfingers 7.12502 -0 0
lthumb -3.77064 68.7923 0.180141
rclavicle -1.20696e-13 4.87022e-15 0
rhumerus -72.7967 13.0359 -80.5589
rradius 126.67 -0 0
rwrist -27.5051 180 180
rhand -66.7927 -34.1212 -1.45931
rfingers 7.12502 -0 0
rthumb -37.9852 -69.5041 -1.14894
1839
root 6.87225 13.8403 27.8074 -19.1311 51.0396 -21.8146
lfemur -54.583 32.1772 1.38466
ltibia 72.7875 -0 0
lfoot -10.1503 -10.0311 -0.210719
ltoes -29.2131 0 0
rfemur 4.33741 -2.61989 16.8653
rtibia 48.3302 -0 0
rfoot -24.6807 -31.7732 0.0413064
rtoes -27.7726 0 0
lowerback 13.848 5.19026 4.97644
upperback -0.495143 8.26863 5.20835
thorax -8.34294 3.94932 1.07017
lowerneck -3.90397 10.4111 3.70298
upperneck 7.83577 13.9619 -2.56669
head 3.74859 6.94022 -0.823437
lclavicle -1.20696e-13 4.87022e-15 0
lhumerus 63.1849 20.4639 112.305
lradius 10.2574 -0 0
lwrist -87.8906 180 180
lhand -30.5921 39.0161 0.171203
lfingers 7.12502 -0 0
lthumb -3.88953 68.9814 0.162285
rclavicle -1.20696e-13 4.87022e-15 0
rhumerus -72.8296 12.8958 -80.6558
rradius 126.735 -0 0
rwrist -28.4757 180 180
rhand -66.6464 -35.2223 -1.49257
rfingers 7.12502 -0 0
rthumb -37.925 -69.8729 -1.17003
1840
root 6.90184 13.8359 27.818 -19.2868 51.2444 -21.9945
lfemur -54.6186 31.9373 1.4178
ltibia 72.5428 -0 0
lfoot -9.92712 -9.9485 -0.183523
ltoes -28.7892 0 0
rfemur 4.37175 -2.78795 16.9464
rtibia 48.2451 -0 0
rfoot -24.7225 -31.6711 0.0364896
rtoes -28.0756 0 0
lowerback 13.8816 5.16058 5.1169
upperback -0.503355 8.25307 5.1818
thorax -8.35179 3.93459 0.964905
lowerneck -3.79942 10.5562 3.80419
upperneck 7.72933 14.1592 -2.66848
head 3.71962 7.03866 -0.868054
lclavicle -1.20696e-13 4.87022e-15 0
lhumerus 63.2395 20.1595 112.3
lradius 10.2188 -0 0
lwrist -88.1678 180 180
lhand -30.7302 39.2436 0.149729
lfingers 7.12502 -0 0
lthumb -4.02289 69.2038 0.141939
rclavicle -1.20696e-13 4.87022e-15 0
rhumerus -72.8571 12.745 -80.7677
rradius 126.775 -0 0
rwrist -29.5579 180 180
rhand -66.3898 -35.8127 -1.56255
rfingers 7.12502 -0 0
rthumb -37.762 -69.5973 -1.23205
1841
root 6.93143 13.8315 27.8286 -19.4558 51.4704 -22.1889
lfemur -54.6545 31.6597 1.45725
ltibia 72.2751 -0 0
lfoot -9.67825 -9.8425 -0.15411
ltoes -28.3351 0 0
rfemur 4.40708 -2.9736 17.0355
rtibia 48.1581 -0 0
rfoot -24.7789 -31.5589 0.0312142
rtoes -28.3842 0 0
lowerback 13.915 5.12775 5.26877
upperback -0.510832 8.23499 5.15275
thorax -8.35809 3.91815 0.851325
lowerneck -3.68754 10.7105 3.90974
upperneck 7.61785 14.3693 -2.77561
head 3.68998 7.14361 -0.914569
lclavicle -1.20696e-13 4.87022e-15 0
lhumerus 63.276 19.8065 112.236
lradius 10.1809 -0 0
lwrist -88.5195 180 180
lhand -30.8758 39.4898 0.126847
lfingers 7.12502 -0 0
lthumb -4.16344 69.4445 0.120256
rclavicle -1.20696e-13 4.87022e-15 0
rhumerus -72.8883 12.5896 -80.9119
rradius 126.791 -0 0
rwrist -30.8324 180 180
rhand -65.9811 -36.1432 -1.66367
rfingers 7.12502 -0 0
rthumb -37.4547 -68.9791 -1.32832
1842
root 6.96102 13.8271 27.8392 -19.6324 51.7097 -22.3983
lfemur -54.6988 31.3592 1.50159
ltibia 72.0075 -0 0
lfoot -9.42368 -9.7166 -0.12405
ltoes -27.8794 0 0
rfemur 4.44968 -3.1717 17.1308
rtibia 48.0589 -0 0
rfoot -24.846 -31.4399 0.0257475
rtoes -28.704 0 0
lowerback 13.948 5.09462 5.43182
upperback -0.518465 8.21833 5.12232
thorax -8.36263 3.90192 0.730011
lowerneck -3.56573 10.8813 4.02567
upperneck 7.50197 14.6024 -2.89538
head 3.66075 7.26003 -0.965777
lclavicle -1.20696e-13 4.87022e-15 0
lhumerus 63.2959 19.4064 112.117
lradius 10.1453 -0 0
lwrist -88.9257 180 180
lhand -31.0212 39.7395 0.103641
lfingers 7.12502 -0 0
lthumb -4.30384 69.6886 0.098263
rclavicle -1.20696e-13 4.87022e-15 0
rhumerus -72.9322 12.4356 -81.1056
rradius 126.776 -0 0
rwrist -32.3799 180 180
rhand -65.378 -36.465 -1.78862
rfingers 7.12502 -0 0
rthumb -36.9613 -68.3199 -1.45272
1843
root 6.99062 13.8227 27.8498 -19.8106 51.9547 -22.623
lfemur -54.7595 31.0504 1.54948
ltibia 71.7632 -0 0
lfoot -9.18345 -9.57434 -0.0948034
ltoes -27.4506 0 0
rfemur 4.50586 -3.37712 17.2305
rtibia 47.9376 -0 0
rfoot -24.92 -31.3176 0.0203376
rtoes -29.0407 0 0
lowerback 13.98 5.06405 5.60585
upperback -0.527147 8.20702 5.09166
thorax -8.36615 3.88782 0.601549
lowerneck -3.43131 11.0758 4.15808
upperneck 7.38225 14.8686 -3.03514
head 3.63303 7.39287 -1.02448
lclavicle -1.20696e-13 4.87022e-15 0
lhumerus 63.3009 18.9609 111.944
lradius 10.1134 -0 0
lwrist -89.378 180 180
lhand -31.159 39.9776 0.0810573
lfingers 7.12502 -0 0
lthumb -4.43678 69.9212 0.0768564
rclavicle -1.20696e-13 4.87022e-15 0
rhumerus -72.9979 12.2889 -81.3656
rradius 126.732 -0 0
rwrist -34.2811 180 180
rhand -64.5377 -37.0296 -1.9251
rfingers 7.12502 -0 0
rthumb -36.239 -67.9222 -1.59601
1844
root 7.02021 13.8183 27.8604 -19.9841 52.1975 -22.8629
lfemur -54.8449 30.7478 1.59968
ltibia 71.5654 -0 0
lfoot -8.97763 -9.41927 -0.0676972
ltoes -27.0771 0 0
rfemur 4.58196 -3.58477 17.3328
rtibia 47.7839 -0 0
rfoot -24.9971 -31.1954 0.0152098
rtoes -29.4001 0 0
lowerback 14.0108 5.03889 5.79067
upperback -0.537778 8.205 5.06189
thorax -8.36944 3.87775 0.466525
lowerneck -3.28147 11.3012 4.31317
upperneck 7.25907 15.1779 -3.20235
head 3.60787 7.54708 -1.09347
lclavicle -1.20696e-13 4.87022e-15 0
lhumerus 63.2927 18.4716 111.72
lradius 10.0868 -0 0
lwrist -89.8603 180 180
lhand -31.2813 40.1886 0.0599071
lfingers 7.12502 -0 0
lthumb -4.55489 70.1271 0.0568058
rclavicle -1.20696e-13 4.87022e-15 0
rhumerus -73.0942 12.1554 -81.7093
rradius 126.658 -0 0
rwrist -36.6166 180 180
rhand -63.4163 -38.0886 -2.05059
rfingers 7.12502 -0 0
rthumb -35.2433 -68.0882 -1.73995
1845
root 7.0498 13.8139 27.871 -20.1467 52.4304 -23.1178
lfemur -54.9628 30.4661 1.65105
ltibia 71.4373 -0 0
lfoot -8.82628 -9.25498 -0.0439044
ltoes -26.7874 0 0
rfemur 4.68436 -3.78958 17.4357
rtibia 47.5879 -0 0
rfoot -25.0734 -31.0767 0.010564
rtoes -29.7878 0 0
lowerback 14.0401 5.02201 5.98609
upperback -0.551261 8.21621 5.03414
thorax -8.37328 3.87363 0.325522
lowerneck -3.1133 11.5647 4.49721
upperneck 7.13258 15.5405 -3.40457
head 3.58629 7.72763 -1.17557
lclavicle -1.20696e-13 4.87022e-15 0
lhumerus 63.2731 17.9399 111.448
lradius 10.068 -0 0
lwrist -89.6416 0 0
lhand -31.3807 40.3575 0.0408972
lfingers 7.12502 -0 0
lthumb -4.65081 70.2916 0.0387817
rclavicle -1.20696e-13 4.87022e-15 0
rhumerus -73.2303 12.0404 -82.1534
rradius 126.55 -0 0
rwrist -39.4671 180 180
rhand -61.9701 -39.8926 -2.12527
rfingers 7.12502 -0 0
rthumb -33.9287 -69.1201 -1.84909
1846
root 7.07939 13.8096 27.8816 -20.2916 52.6458 -23.3873
lfemur -55.1211 30.22 1.70241
ltibia 71.4022 -0 0
lfoot -8.7495 -9.08508 -0.0244391
ltoes -26.6099 0 0
rfemur 4.81946 -3.98647 17.5375
rtibia 47.3394 -0 0
rfoot -25.145 -30.965 0.00657542
rtoes -30.2095 0 0
lowerback 14.0676 5.01625 6.1919
upperback -0.568504 8.24457 5.00955
thorax -8.37848 3.87736 0.179126
lowerneck -2.92369 11.8732 4.71665
upperneck 7.00267 15.9663 -3.64948
head 3.56927 7.93946 -1.27356
lclavicle -1.20696e-13 4.87022e-15 0
lhumerus 63.244 17.3675 111.131
lradius 10.0557 -0 0
lwrist -89.142 0 0
lhand -31.4494 40.469 0.0246777
lfingers 7.12502 -0 0
lthumb -4.71716 70.3996 0.0234011
rclavicle -1.20696e-13 4.87022e-15 0
rhumerus -73.4153 11.949 -82.7153
rradius 126.408 -0 0
rwrist -42.9134 180 180
rhand -60.1594 -42.6903 -2.08313
rfingers 7.12502 -0 0
rthumb -32.2523 -71.3184 -1.86007
